<svg width="418" height="418" viewBox="0 0 418 418" fill="none" xmlns="http://www.w3.org/2000/svg">
<circle cx="209" cy="209" r="209" fill="#DAE1C6"/>
<path d="M272.762 235.676L260.496 319.687C259.949 323.54 258.208 327.04 255.591 329.55C252.973 332.06 249.652 333.414 246.233 333.363H170.785C167.366 333.414 164.045 332.06 161.428 329.55C158.81 327.04 157.069 323.54 156.522 319.687L144.399 235.676H272.762Z" stroke="black" stroke-width="11" stroke-linecap="round" stroke-linejoin="round"/>
<path d="M165.793 124.799C159.108 130.663 153.7 138.21 149.989 146.852C146.278 155.493 144.365 164.996 144.399 174.62C143.937 190.269 148.934 205.488 158.294 216.936C167.653 228.383 180.609 235.122 194.318 235.674C198.861 235.671 203.378 234.903 207.725 233.395L165.793 124.799Z" stroke="black" stroke-width="11" stroke-linecap="round" stroke-linejoin="round"/>
<path d="M251.368 124.799C258.052 130.663 263.461 138.21 267.171 146.852C270.882 155.493 272.795 164.996 272.762 174.62C273.224 190.269 268.226 205.488 258.867 216.936C249.508 228.383 236.551 235.122 222.843 235.674C218.3 235.671 213.783 234.903 209.436 233.395L251.368 124.799Z" stroke="black" stroke-width="11" stroke-linecap="round" stroke-linejoin="round"/>
<path d="M180.055 162.409L208.58 121.706L237.105 162.409" stroke="black" stroke-width="11" stroke-linecap="round" stroke-linejoin="round"/>
</svg>
